# xmcd
#
# Track frame offsets: 
#        150
#        24890
#        49482
#        73192
#        98620
#        127442
#        152097
#        171792
#        189337
#        213755
#
# Disc length: 3222 seconds
#
# Revision: 0
# Processed by: cddbd v1.5.1PL0 Copyright (c) Steve Scherf et al.
# Submitted via: ExactAudioCopy v0.90b4
#
DISCID=880c940a
DTITLE=Randy Johnston - Somewhere In The Night
DYEAR=1997
DGENRE=Blues
TTITLE0=Dat Dere
TTITLE1=I Wish I knew How It Would Feel To Be Free
TTITLE2=Secret Love
TTITLE3=The End Of A Beautiful Friendship
TTITLE4=Sack Of Woe
TTITLE5=Somewhere In The Night
TTITLE6=Blues For The Millenium
TTITLE7=Third Time Around
TTITLE8=In The Wee Small Hours Of The Morning
TTITLE9=Secret Love
EXTD=
EXTT0=
EXTT1=
EXTT2=
EXTT3=
EXTT4=
EXTT5=
EXTT6=
EXTT7=
EXTT8=
EXTT9=
PLAYORDER=
